<svg xmlns="http://www.w3.org/2000/svg" width="114.483" height="78.368" viewBox="0 0 114.483 78.368">
  <g id="Group_32" data-name="Group 32" transform="translate(-104.791 -206.564)">
    <g id="Group_31" data-name="Group 31" transform="translate(13 -1)">
      <path id="Path_16" data-name="Path 16" d="M385.765,350.885c8.6,3.517,7.185-.766,7.185-.766l6.7-4.533c-4.634,14.508-.986,38.178-16.206,47.078l57.666,11.248c-5.105-20.555,2.957-37.571,9.869-58.326,10.948-5.642,24.679-4.307,39.6,0V325.544l-60.616,3.422-9.38,5.042-11.151-3.087c-15.254-2.473-34.709,14.346-29.316,19.2C380.183,350.2,385.292,350.691,385.765,350.885Z" transform="translate(-284.302 -117.98)" fill="#6c63ff"/>
      <path id="Path_15" data-name="Path 15" d="M363.709,373.833s-3.4-.14-8.4,3.48c-5.07,3.668-10.72,7.895-10.977,8.666-.092.276,3.154,5.506,1.614,6.02s-3.506-1.953-4.8-1.84c-2.093.183-6.634,4.545-9.505.927-2.558-3.224.66-6.407,2.15-9.515s6.879-4,6.879-4l12.92-13.611c4.264-4.492,15.385,2.991,15.385,2.991Z" transform="translate(-170.7 677.187) rotate(-104)" fill="#ffb8b8"/>
    </g>
  </g>
</svg>
