<svg xmlns="http://www.w3.org/2000/svg" width="96.302" height="75.242" viewBox="0 0 96.302 75.242">
  <g id="Group_32" data-name="Group 32" transform="translate(-92.877 -209.691)">
    <g id="Group_31" data-name="Group 31" transform="translate(13 -1)">
      <path id="Path_15" data-name="Path 15" d="M364.8,370.558s-4.489,3.135-9.491,6.755c-5.07,3.668-10.72,7.895-10.977,8.666-.242.727-.113,3.749-2.206,3.932s-3.3.419-6.166-3.2c-2.558-3.224-2.465-4.406-.974-7.514s5.66-2.8,5.66-2.8l20.039-13.559Z" transform="matrix(0.695, -0.719, 0.719, 0.695, -413.096, 233.901)" fill="#ffb8b8"/>
      <path id="Path_16" data-name="Path 16" d="M381.2,345.586l9.65,9.071,8.8-9.071c-4.634,14.508-1,29.873-16.224,38.772l57.683,19.554c-5.105-20.555-9.736-35.94-2.825-56.695,1.368-.7,4.508-2.787,7.167-1.631s1.285,4.4,3.468,6.255c2.659,2.254,10.007-5.667,10.007-5.667l1.552-1.731A19.673,19.673,0,0,0,447.3,330.921c-10.919-3.372-17.343-1.955-17.343-1.955l-9.38,5.042-11.151-3.087C393.287,328.3,381.2,345.586,381.2,345.586Z" transform="translate(-284.302 -117.98)" fill="#6c63ff"/>
    </g>
  </g>
</svg>
