<svg xmlns="http://www.w3.org/2000/svg" width="142.876" height="78.368" viewBox="0 0 142.876 78.368">
  <g id="Group_32" data-name="Group 32" transform="translate(-76.398 -206.564)">
    <g id="Group_31" data-name="Group 31" transform="translate(13 -1)">
      <path id="Path_16" data-name="Path 16" d="M372.221,338.529c8.6,3.517,8.986,10.158,8.986,10.158l18.444-3.1c-4.634,14.508-.986,38.178-16.206,47.078l57.666,11.248c-5.105-20.555,2.957-37.571,9.869-58.326,10.948-5.642,24.679-4.307,39.6,0V325.544l-60.616,3.422-9.38,5.042-11.151-3.087C393.287,328.3,363.625,335.013,372.221,338.529Z" transform="translate(-284.302 -117.98)" fill="#6c63ff"/>
      <path id="Path_15" data-name="Path 15" d="M362.6,371.877s-2.289,1.816-7.291,5.435c-5.07,3.668-10.72,7.895-10.977,8.666-.242.727-1.34,4.763-3.433,4.946s-6.391,3.78-9.262.162c-2.558-3.224.66-6.407,2.15-9.515s6.879-4,6.879-4l15.24-11.659,3.265,2.056A14.365,14.365,0,0,1,362.6,371.877Z" transform="matrix(1, 0.017, -0.017, 1, -260.378, -151.389)" fill="#ffb8b8"/>
    </g>
  </g>
</svg>
