<svg xmlns="http://www.w3.org/2000/svg" width="126.397" height="78.368" viewBox="0 0 126.397 78.368">
  <g id="Group_32" data-name="Group 32" transform="translate(-92.877 -206.564)">
    <g id="Group_31" data-name="Group 31" transform="translate(13 -1)">
      <path id="Path_15" data-name="Path 15" d="M364.8,370.558s-4.489,3.135-9.491,6.755c-5.07,3.668-10.72,7.895-10.977,8.666-.242.727-.113,3.749-2.206,3.932s-3.3.419-6.166-3.2c-2.558-3.224-2.465-4.406-.974-7.514s5.66-2.8,5.66-2.8l20.039-13.559Z" transform="matrix(0.695, -0.719, 0.719, 0.695, -413.096, 233.901)" fill="#ffb8b8"/>
      <path id="Path_16" data-name="Path 16" d="M381.2,345.586l9.65,9.071,8.8-9.071c-4.634,14.508-.986,38.178-16.206,47.078l57.666,11.248c-5.105-20.555,2.957-37.571,9.869-58.326,10.948-5.642,24.679-4.307,39.6,0V325.544l-60.616,3.422-9.38,5.042-11.151-3.087C393.287,328.3,381.2,345.586,381.2,345.586Z" transform="translate(-284.302 -117.98)" fill="#6c63ff"/>
    </g>
  </g>
</svg>
