<svg xmlns="http://www.w3.org/2000/svg" width="62.979" height="72.174" viewBox="0 0 62.979 72.174">
  <g id="Group_57" data-name="Group 57" transform="translate(-1378 -674)">
    <g id="Ellipse_31" data-name="Ellipse 31" transform="translate(1378 674)" fill="#fff" stroke="#707070" stroke-width="4">
      <circle cx="24.5" cy="24.5" r="24.5" stroke="none"/>
      <circle cx="24.5" cy="24.5" r="22.5" fill="none"/>
    </g>
    <g id="Path_40" data-name="Path 40" transform="translate(1411.778 725.377) rotate(-40)" fill="#707070">
      <path d="M 7.80159330368042 25.64822387695313 C 7.51918363571167 25.64822387695313 6.037123203277588 25.62699508666992 4.590633392333984 25.20794486999512 C 3.071913480758667 24.76797485351563 2.191313505172729 24.08406448364258 1.973283410072327 23.17523384094238 C 0.8123534321784973 18.3359546661377 1.958423495292664 10.01679420471191 3.514553546905518 4.33515453338623 C 4.04219388961792 2.408672094345093 4.382477760314941 1.743393778800964 4.542013645172119 1.516741514205933 C 4.709599494934082 1.550601720809937 4.971467971801758 1.629689574241638 5.192213535308838 1.696364402770996 C 5.846833229064941 1.894074320793152 6.743363380432129 2.164834260940552 7.895323276519775 2.227444410324097 C 8.04503345489502 2.235584259033203 8.19675350189209 2.239704370498657 8.346253395080566 2.239704370498657 C 9.339093208312988 2.239704370498657 10.14312362670898 2.058454275131226 10.73019313812256 1.926114320755005 C 10.9613094329834 1.874015927314758 11.19874858856201 1.820490717887878 11.35659790039063 1.801295399665833 C 11.51117897033691 2.034666061401367 11.84578990936279 2.75506067276001 12.31915378570557 4.944464206695557 C 13.94295310974121 12.45491409301758 14.27626323699951 18.92939376831055 13.25770378112793 23.17523384094238 C 13.03506374359131 24.10328483581543 12.14936351776123 24.79792404174805 10.62520313262939 25.23986434936523 C 9.245793342590332 25.63982391357422 7.908603668212891 25.64746475219727 7.895253658294678 25.64749526977539 L 7.87458324432373 25.6474552154541 L 7.862183570861816 25.64786529541016 C 7.858583450317383 25.64792442321777 7.836953639984131 25.64822387695313 7.80159330368042 25.64822387695313 Z" stroke="none"/>
      <path d="M 5.387687683105469 3.315895080566406 C 5.271280288696289 3.658489227294922 5.129273414611816 4.11799430847168 4.961273193359375 4.73138427734375 C 4.130143165588379 7.76594352722168 3.505343437194824 11.18666458129883 3.201963424682617 14.36342430114746 C 2.866653442382813 17.87448501586914 2.946163177490234 20.8005542755127 3.431903839111328 22.82532501220703 C 3.507903099060059 23.14212417602539 4.12656307220459 23.5118236541748 5.008013725280762 23.76718521118164 C 6.28636360168457 24.13752365112305 7.650273323059082 24.14821434020996 7.801583290100098 24.14821434020996 C 7.815283298492432 24.14821434020996 7.825848579406738 24.14815902709961 7.833045482635498 24.1480884552002 L 7.852143287658691 24.14748382568359 L 7.890414237976074 24.14748382568359 C 7.945175647735596 24.14684295654297 9.102031707763672 24.12869262695313 10.25579357147217 23.78499412536621 C 10.93942356109619 23.58134460449219 11.70385360717773 23.22229385375977 11.7990837097168 22.82531356811523 C 12.76620292663574 18.7939453125 12.43021392822266 12.55631446838379 10.85302352905273 5.261453628540039 C 10.6842155456543 4.480667114257813 10.54064559936523 3.922361373901367 10.42475891113281 3.525686264038086 C 9.863742828369141 3.635845184326172 9.160343170166016 3.739704132080078 8.346253395080566 3.739704132080078 C 8.169633865356445 3.739704132080078 7.990503311157227 3.734834671020508 7.813923358917236 3.725234985351563 C 6.84050178527832 3.672332763671875 6.024386405944824 3.490730285644531 5.387687683105469 3.315895080566406 M 4.416818618774414 1.9073486328125e-06 C 5.221323013305664 1.9073486328125e-06 6.268027305603027 0.6367912292480469 7.976723670959473 0.7296543121337891 C 8.103261947631836 0.7365322113037109 8.226478576660156 0.7397060394287109 8.34625244140625 0.7397060394287109 C 9.766691207885742 0.7397060394287109 10.72169876098633 0.2939014434814453 11.45790672302246 0.2938976287841797 C 12.42539882659912 0.2938919067382813 13.01479339599609 1.063838958740234 13.78527355194092 4.627485275268555 C 15.19148349761963 11.13151454925537 15.95540332794189 18.36007499694824 14.71631336212158 23.52515411376953 C 13.84996032714844 27.13648986816406 7.967243671417236 27.14748382568359 7.896183013916016 27.14748382568359 C 7.895750999450684 27.14748382568359 7.895543575286865 27.14748382568359 7.895543575286865 27.14748382568359 C 7.895543575286865 27.14748382568359 7.862749099731445 27.14821434020996 7.801582813262939 27.14821434020996 C 7.002532005310059 27.14821434020996 1.35400390625 27.02386093139648 0.5146732330322266 23.52515411376953 C -0.7066564559936523 18.43411445617676 0.420623779296875 9.95311450958252 2.06783390045166 3.938915252685547 C 2.933060646057129 0.7798385620117188 3.52667236328125 1.9073486328125e-06 4.416818618774414 1.9073486328125e-06 Z" stroke="none" fill="#707070"/>
    </g>
  </g>
</svg>
