<svg xmlns="http://www.w3.org/2000/svg" width="124.614" height="78.368" viewBox="0 0 124.614 78.368">
  <g id="Group_32" data-name="Group 32" transform="translate(-94.66 -206.564)">
    <g id="Group_31" data-name="Group 31" transform="translate(13 -1)">
      <path id="Path_16" data-name="Path 16" d="M374.919,350.685c8.6,3.517,8.527,2.313,8.527,2.313l16.206-7.411c-4.634,14.508-.986,38.178-16.206,47.078l57.666,11.248c-5.105-20.555,2.957-37.571,9.869-58.326,10.948-5.642,24.679-4.307,39.6,0V325.544l-60.616,3.422-9.38,5.042-11.151-3.087C393.287,328.3,366.323,347.168,374.919,350.685Z" transform="translate(-284.302 -117.98)" fill="#6c63ff"/>
      <path id="Path_15" data-name="Path 15" d="M365.714,378.589s-5.4-4.9-10.4-1.276c-5.07,3.668-10.72,7.895-10.977,8.666-.134.4,3.314,4.387,2.09,6.1s-4.59-1.238-5.524-1.156c-2.093.183-6.391,3.78-9.262.162-2.558-3.224.66-6.407,2.15-9.515s6.879-4,6.879-4l15.151-12.622c5.174-4.31,16.718,8.242,16.718,8.242a7.576,7.576,0,0,0-3.507,2.085A41.578,41.578,0,0,1,365.714,378.589Z" transform="matrix(-0.469, -0.883, 0.883, -0.469, -64.879, 735.533)" fill="#ffb8b8"/>
    </g>
  </g>
</svg>
