<svg xmlns="http://www.w3.org/2000/svg" width="60.451" height="65.989" viewBox="0 0 60.451 65.989">
  <g id="search" transform="translate(-997 -774)">
    <g id="Group_57" data-name="Group 57" transform="translate(997 774)">
      <g id="Ellipse_31" data-name="Ellipse 31" fill="none" stroke="#000" stroke-width="4">
        <circle cx="23.5" cy="23.5" r="23.5" stroke="none"/>
        <circle cx="23.5" cy="23.5" r="21.5" fill="none"/>
      </g>
      <g id="Path_40" data-name="Path 40" transform="translate(33.752 46.975) rotate(-40)">
        <path d="M 7.133015632629395 23.8217601776123 C 6.925625324249268 23.8217601776123 2.046775341033936 23.79281997680664 1.442975401878357 21.2758903503418 C 0.3662354350090027 16.7875804901123 1.420195460319519 9.10460090637207 2.855105400085449 3.865530490875244 C 3.148725509643555 2.793500423431396 3.406495332717896 2.034140586853027 3.643155336380005 1.544060468673706 C 3.861278295516968 1.092373251914978 3.994462251663208 1.007917284965515 4.005579471588135 1.001477479934692 C 4.005625247955322 1.001497983932495 4.005724430084229 1.00150740146637 4.00587797164917 1.00150740146637 C 4.007813930511475 1.00150740146637 4.018353462219238 1.000000476837158 4.038315296173096 1.000000476837158 C 4.207695484161377 1.000000476837158 4.521955490112305 1.094920516014099 4.854665279388428 1.195400476455688 C 5.435165405273438 1.370720505714417 6.230185508728027 1.610840439796448 7.238895416259766 1.665660500526428 C 7.369095325469971 1.672730445861816 7.501025676727295 1.676320433616638 7.631015300750732 1.676320433616638 C 8.497435569763184 1.676320433616638 9.180294990539551 1.522380471229553 9.728985786437988 1.398700475692749 C 10.03838539123535 1.328950524330139 10.30559539794922 1.268710494041443 10.47602558135986 1.268710494041443 C 10.53002548217773 1.268710494041443 10.54878520965576 1.275240421295166 10.54896545410156 1.275310516357422 C 10.5499153137207 1.275800466537476 10.68649578094482 1.354600429534912 10.89624500274658 1.845920443534851 C 11.12658500671387 2.385460376739502 11.36546516418457 3.234720468521118 11.62653541564941 4.44225025177002 C 13.12272548675537 11.3624906539917 13.42681503295898 17.34078979492188 12.48279571533203 21.2758903503418 C 12.24501514434814 22.26704978942871 11.34361553192139 22.99444961547852 9.803645133972168 23.43787956237793 C 8.492865562438965 23.81531143188477 7.231885433197021 23.82108116149902 7.219305515289307 23.82109069824219 L 7.20874547958374 23.82110023498535 L 7.196705341339111 23.82134056091309 C 7.193175315856934 23.8213996887207 7.170825481414795 23.8217601776123 7.133015632629395 23.8217601776123 Z" stroke="none"/>
        <path d="M 4.475661277770996 2.125591278076172 C 4.329590797424316 2.463102340698242 4.110810279846191 3.066387176513672 3.819585800170898 4.129690170288086 C 2.41734504699707 9.249460220336914 1.379805564880371 16.72589111328125 2.415385246276855 21.04261016845703 C 2.593214988708496 21.78390121459961 3.577625274658203 22.21387100219727 4.372125625610352 22.44404029846191 C 5.613085746765137 22.80355072021484 6.889705657958984 22.8217601776123 7.133015632629395 22.8217601776123 C 7.153572559356689 22.8217601776123 7.168019771575928 22.8216381072998 7.175751686096191 22.82154083251953 L 7.189175605773926 22.82109069824219 L 7.216615676879883 22.82109069824219 C 8.429325103759766 22.81586074829102 11.19416522979736 22.36075973510742 11.51038551330566 21.04261016845703 C 12.42010498046875 17.2504997253418 12.11423492431641 11.43009090423584 10.64912509918213 4.653579711914063 C 10.3776741027832 3.398078918457031 10.16784763336182 2.719720840454102 10.02742671966553 2.356550216674805 C 10.00039005279541 2.36260986328125 9.974023818969727 2.368553161621094 9.948884963989258 2.37421989440918 C 9.383316040039063 2.501710891723633 8.608745574951172 2.676321029663086 7.631015300750732 2.676321029663086 C 7.482945442199707 2.676321029663086 7.332745552062988 2.6722412109375 7.184625625610352 2.664180755615234 C 6.056025505065918 2.602840423583984 5.194565773010254 2.342670440673828 4.565555572509766 2.152690887451172 C 4.536853790283203 2.144021987915039 4.506648063659668 2.13490104675293 4.475661277770996 2.125591278076172 M 4.03831958770752 -3.814697265625e-06 C 4.773881912231445 -3.814697265625e-06 5.730890274047852 0.5822200775146484 7.29316520690918 0.6671314239501953 C 7.408859729766846 0.6734180450439453 7.521506309509277 0.6763210296630859 7.631015777587891 0.6763210296630859 C 8.929730415344238 0.6763210296630859 9.802913665771484 0.2687129974365234 10.47603225708008 0.2687091827392578 C 11.36061477661133 0.2687034606933594 11.89949893951416 0.9726696014404297 12.60395526885986 4.230930328369141 C 13.88965511322021 10.17761039733887 14.58811569213867 16.78671073913574 13.4552059173584 21.50917053222656 C 12.66309070587158 24.81103706359863 7.284491062164307 24.82109069824219 7.219520092010498 24.82109069824219 C 7.219125270843506 24.82109069824219 7.218935489654541 24.82109069824219 7.218935489654541 24.82109069824219 C 7.218935489654541 24.82109069824219 7.188943386077881 24.82175827026367 7.133018493652344 24.82175827026367 C 6.402442455291748 24.82175827026367 1.237971305847168 24.70806884765625 0.4705657958984375 21.50917053222656 C -0.6461048126220703 16.85441017150879 0.3845758438110352 9.100180625915527 1.890625 3.601369857788086 C 2.681711196899414 0.7130088806152344 3.224452972412109 -3.814697265625e-06 4.03831958770752 -3.814697265625e-06 Z" stroke="none"/>
      </g>
    </g>
  </g>
</svg>
