<svg xmlns="http://www.w3.org/2000/svg" viewBox="0 0 343.65 85.63">
    <g id="473ab63c-a461-4ab1-af91-eeafaf952bd7" data-name="LonginesLogo">
        <path class="3aa5ee6a-85aa-45a2-a0de-fb000f88e6b2"
              d="M32.77,35.73c-1.38,4-7.45,3.39-17.05,3.42,0,0,0-28.19,0-29a3.62,3.62,0,0,1,.51-2.4C17,6.54,19.66,6.6,22.71,6.6V1.33H0V6.6c.87,0,5.3-.4,5.94,1.28a5.33,5.33,0,0,1,.32,2.23c0,.94,0,25.4,0,25.4A6,6,0,0,1,6,38c-.44.77-1,1.25-6,1.25,0,2.14,0,5.15,0,5.15H38.64V26H34.1C33.85,29.32,33.58,33.39,32.77,35.73Z"/>
        <path class="3aa5ee6a-85aa-45a2-a0de-fb000f88e6b2"
              d="M190.73,8.66v28c0,3-3.17,2.43-6.09,2.54v5.21h21.91V39.17c-4.22,0-6.09.34-6.09-2.54V8.6c0-2.37,2.19-2,6.08-2V1.33H184.65V6.65C187.92,6.65,190.73,6.23,190.73,8.66Z"/>
        <path class="3aa5ee6a-85aa-45a2-a0de-fb000f88e6b2"
              d="M326.17,18.24c-10.93-2.3-11.3-4.66-11.63-5.94a5,5,0,0,1,.75-3.92c1-1.47,3.31-2.73,6.91-2.73,10.51,0,12.9,7.25,14.15,12.28l4.52,0,0-16.54h-3.83L334.83,4.5A20.62,20.62,0,0,0,322.21.28c-6.09,0-15.53,2.69-15.53,13.38,0,11.23,12,12.69,17.18,13.72,7,1.39,10,2.77,11.17,4.77,1.34,2.2.2,5.18-1.54,6.55s-6.62,2.48-13,.61c-5.7-1.68-8-7.61-9-12.28h-4.31V44.39h3.41L313.05,41c.67,1.09,6.46,4.89,14.21,4.89s16.38-3.44,16.38-13.64C343.65,20.55,329.92,19,326.17,18.24Z"/>
        <path class="3aa5ee6a-85aa-45a2-a0de-fb000f88e6b2"
              d="M239.1,6.65h4c2.93-.06,2.84,1.3,2.84,2.74,0,7.2,0,19.06,0,19.06L227.2,1.33H209.72V6.72l3.74,0c2.45,0,2.69,1.32,2.72,3.44V35.52c0,4.29-1.16,3.65-6.46,3.65v5.21h21.15V39.17c-5.95,0-7.47.63-7.47-3.25V12.73c7.22,10.64,21.53,31.66,21.53,31.66H253V9.17c0-1,0-2.53,1.82-2.53h4.63V1.33H239.1Z"/>
        <path class="3aa5ee6a-85aa-45a2-a0de-fb000f88e6b2"
              d="M262.13,6.72c5.54,0,7.12-.59,7.11,2.55v27c0,3.37-1.32,2.74-7.1,2.86l0,5.29h41.3V26l-4.85,0v5.22c0,6.18-4.39,7.86-8.4,7.77l-11.57,0V24.68s4.68-.44,6.33,1.08c2,1.9,1.77,7.87,1.77,7.87h4.69V11.71h-4.64s-.11,5.55-1.85,6.92-6.3,1-6.3,1v-13l11.56,0c.82,0,4.76-.21,6.56,1.66s2,5.81,2,7.75,0,3,0,3l4.66,0V1.33H262.15Z"/>
        <path class="3aa5ee6a-85aa-45a2-a0de-fb000f88e6b2"
              d="M186.32,56.75l-3.57-5.91H158.62l-3.86,5.82-3.29-5.82H87l8,6.71h13.55l5,4.75h13l5.93,4.75h12.92l4.73,4.77h10V85.63h21.13V71.82h9.86l4.53-4.77H209l4.43-4.75h14l4.29-4.75h14.18l7.32-6.71H191Zm-18.76,7.13,6.08,0-2.91,4.39Zm5.94,13.3h-5.7l2.79-4.56Zm-7.21-15.08-2.53-3.93h14.06l-2.66,3.93Zm2.77,8.62-6.57,9.94v-20Zm-5.43,12.66,2.53-3.92H175l2.66,3.92ZM178.83,81l-6.71-10.26,6.71-10Zm69-28L245,55.4H208.55l-2,2.15h22.1l-2.56,2.65h-28.6l-1.94,2.1H210.4l-2.58,2.59-21.5,0-2.05,2.14h8.21l-2.22,2.27h-9l0-13.43H160.14l-.06,13.43h-9L149,67.05h8l-2.28-2.15H133.36l-3-2.59H145.4l-2.16-2.1H115.13l-2.81-2.65H135L132.6,55.4H95.92L93,53h57.11l4.69,8L160,53l21.39,0,5,8.13L192.13,53Z"/>
        <path class="3aa5ee6a-85aa-45a2-a0de-fb000f88e6b2"
              d="M117.41,6.64h4c2.93-.06,2.84,1.3,2.84,2.74,0,7.2,0,19.06,0,19.06L105.51,1.32H88V6.71l4.8,0c2.13.2,1.62,1.32,1.66,3.45V35.51c0,4-.77,3.65-6.46,3.65v5.21h21.15V39.16c-5.76,0-7.47.5-7.47-3.25V12.72c7.22,10.64,21.53,31.66,21.53,31.66h8.11V9.16c0-1-.19-2.53,1.82-2.53h4.63V1.32H117.41Z"/>
        <path class="3aa5ee6a-85aa-45a2-a0de-fb000f88e6b2"
              d="M86.26,11.08A22.78,22.78,0,0,0,71.19.57,31.35,31.35,0,0,0,65.14,0,25.18,25.18,0,0,0,47.76,6.65c-6.21,6.08-8,15.32-5.45,23.68,2.28,7.72,10,14.06,18,15.07a34.35,34.35,0,0,0,4.85.35c8,0,15.37-3,20.22-9.6C90.18,29.31,90.43,18.3,86.26,11.08ZM78.6,23c0,6.58-1.28,14-7.91,16.51a15.3,15.3,0,0,1-5.58.81,14.74,14.74,0,0,1-5.66-1C53.56,36.8,51.81,29.57,51.69,23c0-5.87,1.62-12.8,6-15.58a12.89,12.89,0,0,1,7.53-2.07,13.24,13.24,0,0,1,7.69,2.07C76.58,10.18,78.81,15.69,78.6,23Z"/>
        <path class="3aa5ee6a-85aa-45a2-a0de-fb000f88e6b2"
              d="M147.52,43.25A20.5,20.5,0,0,0,158,45.81a23.49,23.49,0,0,0,14-4.46c.89,1,1.65,2.15,2.41,3.17h5.06V29.44c.08-3.92,1.5-3.09,5.7-3.16V21.59H163v4.67c5.72.17,7-.76,7,3.2,0,8.26-5.34,9.82-6.49,10.31a10.18,10.18,0,0,1-11.77-2.61c-5.52-6.64-5.36-21.89.09-28.35,2.91-3.29,7.29-3.9,11.78-2.41,5.07,1.65,8,7,9.24,11.65H178V1.33H173L171.2,4.75a21.9,21.9,0,0,0-21.65-3c-8,3-12.16,11.4-12.54,19.37C136.63,30.08,139.41,38.69,147.52,43.25Z"/>
    </g>
</svg>