<?xml version="1.0" encoding="UTF-8"?>
<svg width="513px" height="663px" viewBox="0 0 513 663" version="1.1" xmlns="http://www.w3.org/2000/svg" xmlns:xlink="http://www.w3.org/1999/xlink">
    <defs>
        <linearGradient x1="67.8868416%" y1="-11.3384056%" x2="24.8779529%" y2="143.513872%" id="linearGradient-7">
            <stop stop-color="#FFE500" offset="0%"></stop>
			<stop offset="0%" stop-color="#FFE500">
                <animate attributeName="stop-color" values="#FFE500; #F59E2D; #FFE500" dur="5s" repeatCount="indefinite"></animate>
            </stop>
			<stop offset="50%" stop-color="#F59E2D">
                <animate attributeName="stop-color" values="#F59E2D; #E8335E; #F59E2D" dur="5s" repeatCount="indefinite"></animate>
            </stop>
			<stop offset="100%" stop-color="#E8335E">
                <animate attributeName="stop-color" values="#E8335E; #B14D97; #E8335E" dur="5s" repeatCount="indefinite"></animate>
            </stop>
        </linearGradient>
    </defs>
    <g id="Symbols" stroke="none" stroke-width="1" fill="none" fill-rule="evenodd">
        <g id="Partial/Instagram-feed" transform="translate(-464.000000, -302.000000)">
            <g id="Group-18" transform="translate(464.000000, 301.000000)">
                <path d="M79.49,158.59c-9.39,0-14.81-4.38-17.94-8.14-3.34-4-4.59-9.18-4.59-18.57,0-19.4,1.87-34.84.83-61.54-6.47,6.88-15.85,10-24.2,10C15,80.35,0,69.5,0,41.34,0,27.57,2.5,15.05,4.59,10,6.26,5.87,12.1,4.41,18.15,4.41c8.35,0,16.27,2.92,16.27,7.51,0,6-4.59,15-4.59,25.45,0,10.22,3.13,14,9.18,14,11.06,0,24.62-10,35.26-47.57.84-2.92,2.72-4,5-3.75,9.6.83,19,4.79,23.16,9,1.25,1.25,1.67,1.87,1.67,2.92,0,7.93-16.48,33.59-16.48,72.81,0,11.89-.63,24,2.5,47.36,1.25,9.81,2.92,15,2.92,17.73C93.05,155.25,86.79,158.59,79.49,158.59ZM106,82.23c0-26.5,15.86-46.95,50.91-55.5l2.5-3.13c1.88-2.29,3.55-3.13,6-3.13,18,0,42.15,17.94,42.15,47.57,0,35.68-27.12,55.91-57.79,55.91C123.48,124,106,106.22,106,82.23Zm31.3-2.09c0,9.6,6.47,16.69,14.39,16.69,11.9,0,24.62-9.8,25-26.29.21-9.8-5-16.06-11.27-20.44C147.26,54.48,137.25,65.33,137.25,80.14Zm145.41,57.43c43.81,0,59.25-45.9,59.25-79.7,0-26.71-6.88-53.2-22.32-53.2-8.14,0-20,4.79-20,10.84,0,9,10.22,15.44,10.22,43,0,25.67-10.64,51.12-27.12,51.12-17.94,0-25-21.91-25-45.48,0-35.47,8.34-38.39,8.34-46.53C266,9.05,253.45.49,244.06.49c-6.05,0-10.22,4.38-12.93,11.9-2.92,7.92-6.47,20.44-6.47,43C224.66,100.85,241.77,137.57,282.66,137.57Zm-57.29,68.26c.63,8.35,1,25,3.13,62,.42,8.55.84,12.72,1.88,16.48,1.67,6.05,9.18,9.59,17.53,9.59,6.05,0,9.39-1,9.39-8.76,0-10.22-.63-24.62-.63-41.52,0-27.33.21-45.06.63-76.15,0-5.42-2.3-8.13-6.47-9.8-3.76-1.46-10-2.3-16.69-2.3-5.64,0-9,2.3-14,10-11.89,18.36-21.91,36.92-32.34,54-11.47-21.28-26.5-48.61-34-61.13-2.5-4-4.17-6.88-8.76-6.88-5.63,0-15.86,1.25-20.45,5-2.5,2.08-2.92,3.54-2.92,5.63,0,7.72-.62,23.57-1.25,40.68-1.67,44.86-2.71,67.6-3.54,78-.42,4.59.2,5.84,3.33,7.09a45.3,45.3,0,0,0,16.07,2.72c7.09,0,10.85-2.3,10.85-7.31,0-4.59-.21-19-.21-34.42.21-21.7.62-36.3,1.25-44.86,5.84,9.81,16.9,30.88,28.17,50.91,2.29,4,4.38,5.42,7.3,5.42,9.18,0,17.31-6.88,17.31-13.56a10.24,10.24,0,0,0-.62-3.33C212,226.49,221,212.09,225.37,205.83Zm147.28,73c-5.22,0-14,4.59-29,4.59-15.86,0-24.42-4.17-24.42-27.54,0-2.71.21-7.93.63-14.61,12.31.84,26.5,1.47,36.72,1.47,8.55,0,14-1.26,15.86-5.64,1-2.5,1.25-6.67,1.25-9.8,0-9.81-1.88-13.56-8.14-13.56-7.93,0-25.66,2.29-44,3.54.83-10.64,1.67-21.7,2.09-30a108.57,108.57,0,0,1,14.6-1c19.61,0,30,3.54,35.68,3.54,5,0,8.13-6.88,8.13-21.28,0-6.47-16.06-10.22-35-10.22-17.73,0-36.93,2.29-51.11,7.09-6.68,2.3-8.77,6.47-8.77,14.61,0,7.3,1.88,10.85,4.8,12.1v1c0,11.68-3.13,57.17-3.13,66.35,0,40.26,21.91,52.57,54.46,52.57,13.56,0,26.7-2.08,34.21-5.21,4-1.67,5.22-5,5.22-10.85C382.66,287.6,378.07,278.84,372.65,278.84ZM178.22,311.49c-10,0-21.28,7.92-21.28,13.35,0,2.29,1.66,4.38,3.75,8.14a67,67,0,0,1,9.18,34.84c0,33.59-20.45,53.41-26.91,53.41-8.14,0-19.2-21.28-19.2-51.33,0-27.12,4.38-42.56,4.38-45.69s-.83-5.63-6.67-5.63c-10.64,0-20.24,5.42-24,9.39-2.51,2.71-4.18,6.88-5.22,13.35a171.6,171.6,0,0,0-2.09,28c0,39,14.61,70.72,43,79.07a34.17,34.17,0,0,0,9.39,1.46,28.65,28.65,0,0,0,10.22-2.09c26.5-9.38,47.78-41.51,47.78-83.66,0-20.24-6.68-38.8-14.19-48.82A9.54,9.54,0,0,0,178.22,311.49Zm75.31,50c0-5.84,8.76-12.52,27.54-17.31,11.68-2.93,14.19-4.18,14.19-7.93,0-6.89-8.77-18.36-16.7-18.36-15,0-57.79,16.27-57.79,45.69,0,34.84,59,43.6,59,77.19,0,12.73-8.35,22.12-20.66,22.12s-24-7.72-32.34-16.07c-3.54-3.54-5.63-5-8.76-5-6.68,0-13.35,12.72-13.35,23.78,0,1.88.62,3.34,3.34,6.05,7.3,7.3,25.66,19.19,50.28,19.19,29.62,0,54-16.89,54-51.11C312.36,393.23,253.53,376.75,253.53,361.52Z" id="Combined-Shape" fill="url(#linearGradient-7)"></path>
            </g>
        </g>
    </g>
</svg>
